<?xml version="1.0" encoding="utf-8" standalone="no"?>
<!DOCTYPE svg PUBLIC "-//W3C//DTD SVG 1.1//EN"
  "http://www.w3.org/Graphics/SVG/1.1/DTD/svg11.dtd">
<svg height="216pt" version="1.1" viewBox="0 0 648 216" width="648pt" xmlns="http://www.w3.org/2000/svg" xmlns:xlink="http://www.w3.org/1999/xlink">
 <metadata>
  <rdf:RDF xmlns:cc="http://creativecommons.org/ns#" xmlns:dc="http://purl.org/dc/elements/1.1/" xmlns:rdf="http://www.w3.org/1999/02/22-rdf-syntax-ns#">
   <cc:Work>
    <dc:type rdf:resource="http://purl.org/dc/dcmitype/StillImage"/>
    <dc:date>2021-07-07T14:37:44.544807</dc:date>
    <dc:format>image/svg+xml</dc:format>
    <dc:creator>
     <cc:Agent>
      <dc:title>Matplotlib v3.4.1, https://matplotlib.org/</dc:title>
     </cc:Agent>
    </dc:creator>
   </cc:Work>
  </rdf:RDF>
 </metadata>
 <defs>
  <style type="text/css">*{stroke-linecap:butt;stroke-linejoin:round;}</style>
 </defs>
 <g id="figure_1">
  <g id="patch_1">
   <path d="M 0 216 
L 648 216 
L 648 0 
L 0 0 
z
" style="fill:#ffffff;"/>
  </g>
  <g id="axes_1">
   <g id="patch_2">
    <path d="M 81 189 
L 309.272727 189 
L 309.272727 25.92 
L 81 25.92 
z
" style="fill:#ffffff;"/>
   </g>
   <g id="matplotlib.axis_1">
    <g id="xtick_1">
     <g id="line2d_1">
      <defs>
       <path d="M 0 0 
L 0 3.5 
" id="ma27972ff96" style="stroke:#000000;stroke-width:0.8;"/>
      </defs>
      <g>
       <use style="stroke:#000000;stroke-width:0.8;" x="91.376033" xlink:href="#ma27972ff96" y="189"/>
      </g>
     </g>
     <g id="text_1">
      <!-- 0 -->
      <g transform="translate(88.194783 203.598437)scale(0.1 -0.1)">
       <defs>
        <path d="M 2034 4250 
Q 1547 4250 1301 3770 
Q 1056 3291 1056 2328 
Q 1056 1369 1301 889 
Q 1547 409 2034 409 
Q 2525 409 2770 889 
Q 3016 1369 3016 2328 
Q 3016 3291 2770 3770 
Q 2525 4250 2034 4250 
z
M 2034 4750 
Q 2819 4750 3233 4129 
Q 3647 3509 3647 2328 
Q 3647 1150 3233 529 
Q 2819 -91 2034 -91 
Q 1250 -91 836 529 
Q 422 1150 422 2328 
Q 422 3509 836 4129 
Q 1250 4750 2034 4750 
z
" id="DejaVuSans-30" transform="scale(0.015625)"/>
       </defs>
       <use xlink:href="#DejaVuSans-30"/>
      </g>
     </g>
    </g>
    <g id="xtick_2">
     <g id="line2d_2">
      <g>
       <use style="stroke:#000000;stroke-width:0.8;" x="132.880165" xlink:href="#ma27972ff96" y="189"/>
      </g>
     </g>
     <g id="text_2">
      <!-- 200 -->
      <g transform="translate(123.336415 203.598437)scale(0.1 -0.1)">
       <defs>
        <path d="M 1228 531 
L 3431 531 
L 3431 0 
L 469 0 
L 469 531 
Q 828 903 1448 1529 
Q 2069 2156 2228 2338 
Q 2531 2678 2651 2914 
Q 2772 3150 2772 3378 
Q 2772 3750 2511 3984 
Q 2250 4219 1831 4219 
Q 1534 4219 1204 4116 
Q 875 4013 500 3803 
L 500 4441 
Q 881 4594 1212 4672 
Q 1544 4750 1819 4750 
Q 2544 4750 2975 4387 
Q 3406 4025 3406 3419 
Q 3406 3131 3298 2873 
Q 3191 2616 2906 2266 
Q 2828 2175 2409 1742 
Q 1991 1309 1228 531 
z
" id="DejaVuSans-32" transform="scale(0.015625)"/>
       </defs>
       <use xlink:href="#DejaVuSans-32"/>
       <use x="63.623047" xlink:href="#DejaVuSans-30"/>
       <use x="127.246094" xlink:href="#DejaVuSans-30"/>
      </g>
     </g>
    </g>
    <g id="xtick_3">
     <g id="line2d_3">
      <g>
       <use style="stroke:#000000;stroke-width:0.8;" x="174.384298" xlink:href="#ma27972ff96" y="189"/>
      </g>
     </g>
     <g id="text_3">
      <!-- 400 -->
      <g transform="translate(164.840548 203.598437)scale(0.1 -0.1)">
       <defs>
        <path d="M 2419 4116 
L 825 1625 
L 2419 1625 
L 2419 4116 
z
M 2253 4666 
L 3047 4666 
L 3047 1625 
L 3713 1625 
L 3713 1100 
L 3047 1100 
L 3047 0 
L 2419 0 
L 2419 1100 
L 313 1100 
L 313 1709 
L 2253 4666 
z
" id="DejaVuSans-34" transform="scale(0.015625)"/>
       </defs>
       <use xlink:href="#DejaVuSans-34"/>
       <use x="63.623047" xlink:href="#DejaVuSans-30"/>
       <use x="127.246094" xlink:href="#DejaVuSans-30"/>
      </g>
     </g>
    </g>
    <g id="xtick_4">
     <g id="line2d_4">
      <g>
       <use style="stroke:#000000;stroke-width:0.8;" x="215.88843" xlink:href="#ma27972ff96" y="189"/>
      </g>
     </g>
     <g id="text_4">
      <!-- 600 -->
      <g transform="translate(206.34468 203.598437)scale(0.1 -0.1)">
       <defs>
        <path d="M 2113 2584 
Q 1688 2584 1439 2293 
Q 1191 2003 1191 1497 
Q 1191 994 1439 701 
Q 1688 409 2113 409 
Q 2538 409 2786 701 
Q 3034 994 3034 1497 
Q 3034 2003 2786 2293 
Q 2538 2584 2113 2584 
z
M 3366 4563 
L 3366 3988 
Q 3128 4100 2886 4159 
Q 2644 4219 2406 4219 
Q 1781 4219 1451 3797 
Q 1122 3375 1075 2522 
Q 1259 2794 1537 2939 
Q 1816 3084 2150 3084 
Q 2853 3084 3261 2657 
Q 3669 2231 3669 1497 
Q 3669 778 3244 343 
Q 2819 -91 2113 -91 
Q 1303 -91 875 529 
Q 447 1150 447 2328 
Q 447 3434 972 4092 
Q 1497 4750 2381 4750 
Q 2619 4750 2861 4703 
Q 3103 4656 3366 4563 
z
" id="DejaVuSans-36" transform="scale(0.015625)"/>
       </defs>
       <use xlink:href="#DejaVuSans-36"/>
       <use x="63.623047" xlink:href="#DejaVuSans-30"/>
       <use x="127.246094" xlink:href="#DejaVuSans-30"/>
      </g>
     </g>
    </g>
    <g id="xtick_5">
     <g id="line2d_5">
      <g>
       <use style="stroke:#000000;stroke-width:0.8;" x="257.392562" xlink:href="#ma27972ff96" y="189"/>
      </g>
     </g>
     <g id="text_5">
      <!-- 800 -->
      <g transform="translate(247.848812 203.598437)scale(0.1 -0.1)">
       <defs>
        <path d="M 2034 2216 
Q 1584 2216 1326 1975 
Q 1069 1734 1069 1313 
Q 1069 891 1326 650 
Q 1584 409 2034 409 
Q 2484 409 2743 651 
Q 3003 894 3003 1313 
Q 3003 1734 2745 1975 
Q 2488 2216 2034 2216 
z
M 1403 2484 
Q 997 2584 770 2862 
Q 544 3141 544 3541 
Q 544 4100 942 4425 
Q 1341 4750 2034 4750 
Q 2731 4750 3128 4425 
Q 3525 4100 3525 3541 
Q 3525 3141 3298 2862 
Q 3072 2584 2669 2484 
Q 3125 2378 3379 2068 
Q 3634 1759 3634 1313 
Q 3634 634 3220 271 
Q 2806 -91 2034 -91 
Q 1263 -91 848 271 
Q 434 634 434 1313 
Q 434 1759 690 2068 
Q 947 2378 1403 2484 
z
M 1172 3481 
Q 1172 3119 1398 2916 
Q 1625 2713 2034 2713 
Q 2441 2713 2670 2916 
Q 2900 3119 2900 3481 
Q 2900 3844 2670 4047 
Q 2441 4250 2034 4250 
Q 1625 4250 1398 4047 
Q 1172 3844 1172 3481 
z
" id="DejaVuSans-38" transform="scale(0.015625)"/>
       </defs>
       <use xlink:href="#DejaVuSans-38"/>
       <use x="63.623047" xlink:href="#DejaVuSans-30"/>
       <use x="127.246094" xlink:href="#DejaVuSans-30"/>
      </g>
     </g>
    </g>
    <g id="xtick_6">
     <g id="line2d_6">
      <g>
       <use style="stroke:#000000;stroke-width:0.8;" x="298.896694" xlink:href="#ma27972ff96" y="189"/>
      </g>
     </g>
     <g id="text_6">
      <!-- 1000 -->
      <g transform="translate(286.171694 203.598437)scale(0.1 -0.1)">
       <defs>
        <path d="M 794 531 
L 1825 531 
L 1825 4091 
L 703 3866 
L 703 4441 
L 1819 4666 
L 2450 4666 
L 2450 531 
L 3481 531 
L 3481 0 
L 794 0 
L 794 531 
z
" id="DejaVuSans-31" transform="scale(0.015625)"/>
       </defs>
       <use xlink:href="#DejaVuSans-31"/>
       <use x="63.623047" xlink:href="#DejaVuSans-30"/>
       <use x="127.246094" xlink:href="#DejaVuSans-30"/>
       <use x="190.869141" xlink:href="#DejaVuSans-30"/>
      </g>
     </g>
    </g>
    <g id="text_7">
     <!-- Time (ms) -->
     <g transform="translate(169.937145 217.276563)scale(0.1 -0.1)">
      <defs>
       <path d="M -19 4666 
L 3928 4666 
L 3928 4134 
L 2272 4134 
L 2272 0 
L 1638 0 
L 1638 4134 
L -19 4134 
L -19 4666 
z
" id="DejaVuSans-54" transform="scale(0.015625)"/>
       <path d="M 603 3500 
L 1178 3500 
L 1178 0 
L 603 0 
L 603 3500 
z
M 603 4863 
L 1178 4863 
L 1178 4134 
L 603 4134 
L 603 4863 
z
" id="DejaVuSans-69" transform="scale(0.015625)"/>
       <path d="M 3328 2828 
Q 3544 3216 3844 3400 
Q 4144 3584 4550 3584 
Q 5097 3584 5394 3201 
Q 5691 2819 5691 2113 
L 5691 0 
L 5113 0 
L 5113 2094 
Q 5113 2597 4934 2840 
Q 4756 3084 4391 3084 
Q 3944 3084 3684 2787 
Q 3425 2491 3425 1978 
L 3425 0 
L 2847 0 
L 2847 2094 
Q 2847 2600 2669 2842 
Q 2491 3084 2119 3084 
Q 1678 3084 1418 2786 
Q 1159 2488 1159 1978 
L 1159 0 
L 581 0 
L 581 3500 
L 1159 3500 
L 1159 2956 
Q 1356 3278 1631 3431 
Q 1906 3584 2284 3584 
Q 2666 3584 2933 3390 
Q 3200 3197 3328 2828 
z
" id="DejaVuSans-6d" transform="scale(0.015625)"/>
       <path d="M 3597 1894 
L 3597 1613 
L 953 1613 
Q 991 1019 1311 708 
Q 1631 397 2203 397 
Q 2534 397 2845 478 
Q 3156 559 3463 722 
L 3463 178 
Q 3153 47 2828 -22 
Q 2503 -91 2169 -91 
Q 1331 -91 842 396 
Q 353 884 353 1716 
Q 353 2575 817 3079 
Q 1281 3584 2069 3584 
Q 2775 3584 3186 3129 
Q 3597 2675 3597 1894 
z
M 3022 2063 
Q 3016 2534 2758 2815 
Q 2500 3097 2075 3097 
Q 1594 3097 1305 2825 
Q 1016 2553 972 2059 
L 3022 2063 
z
" id="DejaVuSans-65" transform="scale(0.015625)"/>
       <path id="DejaVuSans-20" transform="scale(0.015625)"/>
       <path d="M 1984 4856 
Q 1566 4138 1362 3434 
Q 1159 2731 1159 2009 
Q 1159 1288 1364 580 
Q 1569 -128 1984 -844 
L 1484 -844 
Q 1016 -109 783 600 
Q 550 1309 550 2009 
Q 550 2706 781 3412 
Q 1013 4119 1484 4856 
L 1984 4856 
z
" id="DejaVuSans-28" transform="scale(0.015625)"/>
       <path d="M 2834 3397 
L 2834 2853 
Q 2591 2978 2328 3040 
Q 2066 3103 1784 3103 
Q 1356 3103 1142 2972 
Q 928 2841 928 2578 
Q 928 2378 1081 2264 
Q 1234 2150 1697 2047 
L 1894 2003 
Q 2506 1872 2764 1633 
Q 3022 1394 3022 966 
Q 3022 478 2636 193 
Q 2250 -91 1575 -91 
Q 1294 -91 989 -36 
Q 684 19 347 128 
L 347 722 
Q 666 556 975 473 
Q 1284 391 1588 391 
Q 1994 391 2212 530 
Q 2431 669 2431 922 
Q 2431 1156 2273 1281 
Q 2116 1406 1581 1522 
L 1381 1569 
Q 847 1681 609 1914 
Q 372 2147 372 2553 
Q 372 3047 722 3315 
Q 1072 3584 1716 3584 
Q 2034 3584 2315 3537 
Q 2597 3491 2834 3397 
z
" id="DejaVuSans-73" transform="scale(0.015625)"/>
       <path d="M 513 4856 
L 1013 4856 
Q 1481 4119 1714 3412 
Q 1947 2706 1947 2009 
Q 1947 1309 1714 600 
Q 1481 -109 1013 -844 
L 513 -844 
Q 928 -128 1133 580 
Q 1338 1288 1338 2009 
Q 1338 2731 1133 3434 
Q 928 4138 513 4856 
z
" id="DejaVuSans-29" transform="scale(0.015625)"/>
      </defs>
      <use xlink:href="#DejaVuSans-54"/>
      <use x="57.958984" xlink:href="#DejaVuSans-69"/>
      <use x="85.742188" xlink:href="#DejaVuSans-6d"/>
      <use x="183.154297" xlink:href="#DejaVuSans-65"/>
      <use x="244.677734" xlink:href="#DejaVuSans-20"/>
      <use x="276.464844" xlink:href="#DejaVuSans-28"/>
      <use x="315.478516" xlink:href="#DejaVuSans-6d"/>
      <use x="412.890625" xlink:href="#DejaVuSans-73"/>
      <use x="464.990234" xlink:href="#DejaVuSans-29"/>
     </g>
    </g>
   </g>
   <g id="matplotlib.axis_2">
    <g id="ytick_1">
     <g id="line2d_7">
      <defs>
       <path d="M 0 0 
L -3.5 0 
" id="m92a0ae60d9" style="stroke:#000000;stroke-width:0.8;"/>
      </defs>
      <g>
       <use style="stroke:#000000;stroke-width:0.8;" x="81" xlink:href="#m92a0ae60d9" y="167.882694"/>
      </g>
     </g>
     <g id="text_8">
      <!-- −80 -->
      <g transform="translate(52.895313 171.681913)scale(0.1 -0.1)">
       <defs>
        <path d="M 678 2272 
L 4684 2272 
L 4684 1741 
L 678 1741 
L 678 2272 
z
" id="DejaVuSans-2212" transform="scale(0.015625)"/>
       </defs>
       <use xlink:href="#DejaVuSans-2212"/>
       <use x="83.789062" xlink:href="#DejaVuSans-38"/>
       <use x="147.412109" xlink:href="#DejaVuSans-30"/>
      </g>
     </g>
    </g>
    <g id="ytick_2">
     <g id="line2d_8">
      <g>
       <use style="stroke:#000000;stroke-width:0.8;" x="81" xlink:href="#m92a0ae60d9" y="145.800598"/>
      </g>
     </g>
     <g id="text_9">
      <!-- −60 -->
      <g transform="translate(52.895313 149.599817)scale(0.1 -0.1)">
       <use xlink:href="#DejaVuSans-2212"/>
       <use x="83.789062" xlink:href="#DejaVuSans-36"/>
       <use x="147.412109" xlink:href="#DejaVuSans-30"/>
      </g>
     </g>
    </g>
    <g id="ytick_3">
     <g id="line2d_9">
      <g>
       <use style="stroke:#000000;stroke-width:0.8;" x="81" xlink:href="#m92a0ae60d9" y="123.718502"/>
      </g>
     </g>
     <g id="text_10">
      <!-- −40 -->
      <g transform="translate(52.895313 127.517721)scale(0.1 -0.1)">
       <use xlink:href="#DejaVuSans-2212"/>
       <use x="83.789062" xlink:href="#DejaVuSans-34"/>
       <use x="147.412109" xlink:href="#DejaVuSans-30"/>
      </g>
     </g>
    </g>
    <g id="ytick_4">
     <g id="line2d_10">
      <g>
       <use style="stroke:#000000;stroke-width:0.8;" x="81" xlink:href="#m92a0ae60d9" y="101.636406"/>
      </g>
     </g>
     <g id="text_11">
      <!-- −20 -->
      <g transform="translate(52.895313 105.435625)scale(0.1 -0.1)">
       <use xlink:href="#DejaVuSans-2212"/>
       <use x="83.789062" xlink:href="#DejaVuSans-32"/>
       <use x="147.412109" xlink:href="#DejaVuSans-30"/>
      </g>
     </g>
    </g>
    <g id="ytick_5">
     <g id="line2d_11">
      <g>
       <use style="stroke:#000000;stroke-width:0.8;" x="81" xlink:href="#m92a0ae60d9" y="79.55431"/>
      </g>
     </g>
     <g id="text_12">
      <!-- 0 -->
      <g transform="translate(67.6375 83.353529)scale(0.1 -0.1)">
       <use xlink:href="#DejaVuSans-30"/>
      </g>
     </g>
    </g>
    <g id="ytick_6">
     <g id="line2d_12">
      <g>
       <use style="stroke:#000000;stroke-width:0.8;" x="81" xlink:href="#m92a0ae60d9" y="57.472214"/>
      </g>
     </g>
     <g id="text_13">
      <!-- 20 -->
      <g transform="translate(61.275 61.271433)scale(0.1 -0.1)">
       <use xlink:href="#DejaVuSans-32"/>
       <use x="63.623047" xlink:href="#DejaVuSans-30"/>
      </g>
     </g>
    </g>
    <g id="ytick_7">
     <g id="line2d_13">
      <g>
       <use style="stroke:#000000;stroke-width:0.8;" x="81" xlink:href="#m92a0ae60d9" y="35.390118"/>
      </g>
     </g>
     <g id="text_14">
      <!-- 40 -->
      <g transform="translate(61.275 39.189337)scale(0.1 -0.1)">
       <use xlink:href="#DejaVuSans-34"/>
       <use x="63.623047" xlink:href="#DejaVuSans-30"/>
      </g>
     </g>
    </g>
    <g id="text_15">
     <!-- membrane potential (mV) -->
     <g transform="translate(46.815625 172.427969)rotate(-90)scale(0.1 -0.1)">
      <defs>
       <path d="M 3116 1747 
Q 3116 2381 2855 2742 
Q 2594 3103 2138 3103 
Q 1681 3103 1420 2742 
Q 1159 2381 1159 1747 
Q 1159 1113 1420 752 
Q 1681 391 2138 391 
Q 2594 391 2855 752 
Q 3116 1113 3116 1747 
z
M 1159 2969 
Q 1341 3281 1617 3432 
Q 1894 3584 2278 3584 
Q 2916 3584 3314 3078 
Q 3713 2572 3713 1747 
Q 3713 922 3314 415 
Q 2916 -91 2278 -91 
Q 1894 -91 1617 61 
Q 1341 213 1159 525 
L 1159 0 
L 581 0 
L 581 4863 
L 1159 4863 
L 1159 2969 
z
" id="DejaVuSans-62" transform="scale(0.015625)"/>
       <path d="M 2631 2963 
Q 2534 3019 2420 3045 
Q 2306 3072 2169 3072 
Q 1681 3072 1420 2755 
Q 1159 2438 1159 1844 
L 1159 0 
L 581 0 
L 581 3500 
L 1159 3500 
L 1159 2956 
Q 1341 3275 1631 3429 
Q 1922 3584 2338 3584 
Q 2397 3584 2469 3576 
Q 2541 3569 2628 3553 
L 2631 2963 
z
" id="DejaVuSans-72" transform="scale(0.015625)"/>
       <path d="M 2194 1759 
Q 1497 1759 1228 1600 
Q 959 1441 959 1056 
Q 959 750 1161 570 
Q 1363 391 1709 391 
Q 2188 391 2477 730 
Q 2766 1069 2766 1631 
L 2766 1759 
L 2194 1759 
z
M 3341 1997 
L 3341 0 
L 2766 0 
L 2766 531 
Q 2569 213 2275 61 
Q 1981 -91 1556 -91 
Q 1019 -91 701 211 
Q 384 513 384 1019 
Q 384 1609 779 1909 
Q 1175 2209 1959 2209 
L 2766 2209 
L 2766 2266 
Q 2766 2663 2505 2880 
Q 2244 3097 1772 3097 
Q 1472 3097 1187 3025 
Q 903 2953 641 2809 
L 641 3341 
Q 956 3463 1253 3523 
Q 1550 3584 1831 3584 
Q 2591 3584 2966 3190 
Q 3341 2797 3341 1997 
z
" id="DejaVuSans-61" transform="scale(0.015625)"/>
       <path d="M 3513 2113 
L 3513 0 
L 2938 0 
L 2938 2094 
Q 2938 2591 2744 2837 
Q 2550 3084 2163 3084 
Q 1697 3084 1428 2787 
Q 1159 2491 1159 1978 
L 1159 0 
L 581 0 
L 581 3500 
L 1159 3500 
L 1159 2956 
Q 1366 3272 1645 3428 
Q 1925 3584 2291 3584 
Q 2894 3584 3203 3211 
Q 3513 2838 3513 2113 
z
" id="DejaVuSans-6e" transform="scale(0.015625)"/>
       <path d="M 1159 525 
L 1159 -1331 
L 581 -1331 
L 581 3500 
L 1159 3500 
L 1159 2969 
Q 1341 3281 1617 3432 
Q 1894 3584 2278 3584 
Q 2916 3584 3314 3078 
Q 3713 2572 3713 1747 
Q 3713 922 3314 415 
Q 2916 -91 2278 -91 
Q 1894 -91 1617 61 
Q 1341 213 1159 525 
z
M 3116 1747 
Q 3116 2381 2855 2742 
Q 2594 3103 2138 3103 
Q 1681 3103 1420 2742 
Q 1159 2381 1159 1747 
Q 1159 1113 1420 752 
Q 1681 391 2138 391 
Q 2594 391 2855 752 
Q 3116 1113 3116 1747 
z
" id="DejaVuSans-70" transform="scale(0.015625)"/>
       <path d="M 1959 3097 
Q 1497 3097 1228 2736 
Q 959 2375 959 1747 
Q 959 1119 1226 758 
Q 1494 397 1959 397 
Q 2419 397 2687 759 
Q 2956 1122 2956 1747 
Q 2956 2369 2687 2733 
Q 2419 3097 1959 3097 
z
M 1959 3584 
Q 2709 3584 3137 3096 
Q 3566 2609 3566 1747 
Q 3566 888 3137 398 
Q 2709 -91 1959 -91 
Q 1206 -91 779 398 
Q 353 888 353 1747 
Q 353 2609 779 3096 
Q 1206 3584 1959 3584 
z
" id="DejaVuSans-6f" transform="scale(0.015625)"/>
       <path d="M 1172 4494 
L 1172 3500 
L 2356 3500 
L 2356 3053 
L 1172 3053 
L 1172 1153 
Q 1172 725 1289 603 
Q 1406 481 1766 481 
L 2356 481 
L 2356 0 
L 1766 0 
Q 1100 0 847 248 
Q 594 497 594 1153 
L 594 3053 
L 172 3053 
L 172 3500 
L 594 3500 
L 594 4494 
L 1172 4494 
z
" id="DejaVuSans-74" transform="scale(0.015625)"/>
       <path d="M 603 4863 
L 1178 4863 
L 1178 0 
L 603 0 
L 603 4863 
z
" id="DejaVuSans-6c" transform="scale(0.015625)"/>
       <path d="M 1831 0 
L 50 4666 
L 709 4666 
L 2188 738 
L 3669 4666 
L 4325 4666 
L 2547 0 
L 1831 0 
z
" id="DejaVuSans-56" transform="scale(0.015625)"/>
      </defs>
      <use xlink:href="#DejaVuSans-6d"/>
      <use x="97.412109" xlink:href="#DejaVuSans-65"/>
      <use x="158.935547" xlink:href="#DejaVuSans-6d"/>
      <use x="256.347656" xlink:href="#DejaVuSans-62"/>
      <use x="319.824219" xlink:href="#DejaVuSans-72"/>
      <use x="360.9375" xlink:href="#DejaVuSans-61"/>
      <use x="422.216797" xlink:href="#DejaVuSans-6e"/>
      <use x="485.595703" xlink:href="#DejaVuSans-65"/>
      <use x="547.119141" xlink:href="#DejaVuSans-20"/>
      <use x="578.90625" xlink:href="#DejaVuSans-70"/>
      <use x="642.382812" xlink:href="#DejaVuSans-6f"/>
      <use x="703.564453" xlink:href="#DejaVuSans-74"/>
      <use x="742.773438" xlink:href="#DejaVuSans-65"/>
      <use x="804.296875" xlink:href="#DejaVuSans-6e"/>
      <use x="867.675781" xlink:href="#DejaVuSans-74"/>
      <use x="906.884766" xlink:href="#DejaVuSans-69"/>
      <use x="934.667969" xlink:href="#DejaVuSans-61"/>
      <use x="995.947266" xlink:href="#DejaVuSans-6c"/>
      <use x="1023.730469" xlink:href="#DejaVuSans-20"/>
      <use x="1055.517578" xlink:href="#DejaVuSans-28"/>
      <use x="1094.53125" xlink:href="#DejaVuSans-6d"/>
      <use x="1191.943359" xlink:href="#DejaVuSans-56"/>
      <use x="1260.351562" xlink:href="#DejaVuSans-29"/>
     </g>
    </g>
   </g>
   <g id="line2d_14">
    <path clip-path="url(#pcbc5ce7afb)" d="M 91.376033 174.507323 
L 91.562802 175.545573 
L 92.040099 177.056148 
L 92.621157 178.186435 
L 93.259283 178.959633 
L 93.970041 179.475829 
L 94.826064 179.814855 
L 96.003744 180.024784 
L 98.05301 180.131071 
L 104.833748 180.157383 
L 132.880165 180.157871 
L 133.046182 175.23904 
L 133.398967 171.173194 
L 133.917769 167.681896 
L 134.571459 164.762249 
L 135.365225 162.223464 
L 136.31982 159.911028 
L 137.44562 157.76398 
L 138.763376 155.73128 
L 140.293841 153.781867 
L 142.083707 151.865863 
L 144.215981 149.915525 
L 146.892998 147.780766 
L 155.370217 141.251437 
L 156.594589 139.877329 
L 157.476552 138.560202 
L 158.140618 137.167122 
L 158.643855 135.587118 
L 159.032957 133.602621 
L 159.328674 130.849466 
L 159.541382 126.581698 
L 159.681459 118.722424 
L 159.759279 99.760584 
L 159.842287 52.924021 
L 159.914919 70.725201 
L 160.158756 124.008194 
L 160.542669 145.13326 
L 160.843574 151.241972 
L 161.134103 153.315106 
L 161.40388 153.928404 
L 161.642529 154.011939 
L 161.943434 153.847177 
L 164.101649 152.229455 
L 165.284517 151.872573 
L 168.41289 151.256737 
L 172.957593 150.249089 
L 177.865457 148.927935 
L 181.305112 147.79817 
L 183.629343 146.804757 
L 185.932822 145.56882 
L 188.589087 143.885633 
L 190.768054 142.259619 
L 192.282955 140.863485 
L 193.372438 139.565914 
L 194.186957 138.252303 
L 194.804331 136.829598 
L 195.27644 135.1709 
L 195.639601 133.04947 
L 195.914566 130.020318 
L 196.106523 125.258934 
L 196.231035 115.957677 
L 196.298479 91.565457 
L 196.371112 52.811873 
L 196.433368 67.270253 
L 196.692769 124.482277 
L 197.071494 145.048069 
L 197.372399 151.110085 
L 197.662928 153.173542 
L 197.932705 153.786689 
L 198.171353 153.872106 
L 198.472258 153.710096 
L 200.666789 152.081455 
L 201.875597 151.722127 
L 205.4242 151.015745 
L 209.865143 149.992446 
L 214.622554 148.666335 
L 217.916944 147.542138 
L 220.184107 146.537591 
L 222.378638 145.313987 
L 224.749562 143.733847 
L 226.71582 142.170128 
L 228.121773 140.778799 
L 229.149 139.455844 
L 229.916826 138.106412 
L 230.503072 136.620074 
L 230.95443 134.846761 
L 231.296839 132.556672 
L 231.551052 129.256997 
L 231.727444 123.854682 
L 231.836393 112.998545 
L 231.903837 75.995456 
L 231.955717 52.496924 
L 232.023161 67.799816 
L 232.277374 124.39298 
L 232.656099 145.087532 
L 232.957004 151.115767 
L 233.247533 153.149148 
L 233.51731 153.745048 
L 233.755959 153.821105 
L 234.062052 153.647771 
L 236.168386 152.042867 
L 236.640496 151.86798 
L 236.8117 157.228886 
L 237.195614 162.45756 
L 237.771483 167.253508 
L 238.56525 171.990029 
L 239.359017 175.502546 
L 240.049023 177.625896 
L 240.687149 178.916525 
L 241.320087 179.71708 
L 241.994529 180.21804 
L 242.798671 180.531502 
L 243.908907 180.70818 
L 245.869977 180.760648 
L 252.339434 180.612802 
L 269.527333 180.186431 
L 298.896694 180.156384 
L 298.896694 180.156384 
" style="fill:none;stroke:#1f77b4;stroke-linecap:square;stroke-width:1.5;"/>
   </g>
   <g id="line2d_15">
    <path clip-path="url(#pcbc5ce7afb)" d="M 91.376033 174.507323 
L 91.557614 175.981312 
L 91.998595 177.825586 
L 92.548525 179.217214 
L 93.139959 180.139628 
L 93.772897 180.729572 
L 94.509595 181.109384 
L 95.479754 181.344894 
L 97.062099 181.471182 
L 101.295521 181.510395 
L 132.880165 181.512108 
L 133.046182 176.689415 
L 133.393779 172.886986 
L 133.902205 169.695908 
L 134.545519 167.041606 
L 135.328909 164.743648 
L 136.26794 162.672945 
L 137.372988 160.770975 
L 138.664804 158.990745 
L 140.16414 157.305387 
L 141.907314 155.683942 
L 143.941017 154.100304 
L 146.343068 152.517335 
L 149.26911 150.864093 
L 153.170498 148.932072 
L 161.637341 144.814627 
L 163.754052 143.488118 
L 165.243012 142.302412 
L 166.342872 141.150231 
L 167.178143 139.956749 
L 167.821457 138.647898 
L 168.324694 137.1039 
L 168.713795 135.154019 
L 169.004324 132.504696 
L 169.217033 128.318558 
L 169.351921 120.797418 
L 169.424554 102.684293 
L 169.507562 43.837208 
L 169.585382 64.42973 
L 169.844783 128.126198 
L 170.182004 149.070892 
L 170.451781 154.388767 
L 170.71637 155.959087 
L 170.949831 156.298789 
L 171.162539 156.263676 
L 171.546452 155.906745 
L 172.516612 155.001624 
L 173.22737 154.672518 
L 174.161213 154.50426 
L 176.143035 154.434935 
L 179.66051 154.252652 
L 183.126105 153.835048 
L 187.131254 153.123866 
L 190.498277 152.318156 
L 193.019653 151.487562 
L 196.256975 150.153727 
L 204.547426 146.447397 
L 207.525347 144.876743 
L 209.527921 143.580145 
L 210.975378 142.386756 
L 212.054486 141.214895 
L 212.874192 140.000006 
L 213.50713 138.663757 
L 213.999992 137.094536 
L 214.383905 135.094393 
L 214.669246 132.372782 
L 214.876767 128.059332 
L 215.006467 120.329143 
L 215.079099 99.363961 
L 215.156919 43.625366 
L 215.229552 62.003608 
L 215.499329 128.642703 
L 215.831362 149.056919 
L 216.101138 154.321992 
L 216.365727 155.868399 
L 216.599188 156.198878 
L 216.811897 156.160145 
L 217.200998 155.796012 
L 218.160781 154.901638 
L 218.871539 154.570563 
L 219.805382 154.399407 
L 221.776829 154.325021 
L 225.315056 154.13424 
L 228.775463 153.709728 
L 232.75986 152.992435 
L 236.10613 152.182077 
L 236.640496 152.023981 
L 236.8117 157.386658 
L 237.195614 162.663811 
L 237.787048 167.715511 
L 238.606754 172.813919 
L 239.384957 176.39241 
L 240.054211 178.505173 
L 240.671585 179.768351 
L 241.283771 180.541538 
L 241.942649 181.02346 
L 242.741603 181.324373 
L 243.877779 181.495147 
L 246.067122 181.557347 
L 268.100628 181.512733 
L 298.896694 181.511174 
L 298.896694 181.511174 
" style="fill:none;stroke:#ff7f0e;stroke-linecap:square;stroke-width:1.5;"/>
   </g>
   <g id="line2d_16">
    <path clip-path="url(#pcbc5ce7afb)" d="M 91.376033 174.507323 
L 91.552426 175.374186 
L 92.024535 176.633319 
L 92.615969 177.604348 
L 93.290411 178.295454 
L 94.058238 178.765257 
L 95.012833 179.078968 
L 96.366905 179.271212 
L 98.862341 179.363597 
L 109.004913 179.382052 
L 132.880165 179.38222 
L 133.046182 174.441998 
L 133.404155 170.25177 
L 133.933333 166.593217 
L 134.592211 163.546384 
L 135.391165 160.89183 
L 136.34576 158.486268 
L 137.476748 156.238502 
L 138.794504 154.114411 
L 140.330157 152.063365 
L 142.120023 150.047542 
L 144.236733 148.004766 
L 146.830742 145.820758 
L 150.638746 142.937628 
L 154.555698 139.905684 
L 156.205488 138.347758 
L 157.310535 137.008498 
L 158.10949 135.69556 
L 158.7113 134.273555 
L 159.173033 132.592651 
L 159.531006 130.398182 
L 159.800783 127.268842 
L 159.997928 122.179553 
L 160.132816 112.077348 
L 160.2262 82.423508 
L 160.278081 70.988812 
L 160.335149 80.152727 
L 160.578986 117.434126 
L 161.019967 132.685389 
L 161.476512 142.833778 
L 161.85005 146.729959 
L 162.213211 148.462262 
L 162.565996 149.191947 
L 162.918781 149.458606 
L 163.349386 149.496337 
L 164.283229 149.284135 
L 165.767002 149.032196 
L 173.543839 148.12457 
L 177.5438 147.26266 
L 181.93805 146.09267 
L 184.874467 145.101256 
L 187.136442 144.102725 
L 189.517742 142.798088 
L 192.199946 141.073282 
L 194.321845 139.461821 
L 195.80043 138.070655 
L 196.858785 136.776771 
L 197.636988 135.479071 
L 198.228421 134.055035 
L 198.679779 132.371553 
L 199.027376 130.17702 
L 199.291965 126.989935 
L 199.483921 121.788052 
L 199.613622 111.579795 
L 199.712194 79.180494 
L 199.753698 71.163905 
L 199.815955 81.067295 
L 200.054603 117.117185 
L 200.485209 131.617347 
L 200.967694 142.339649 
L 201.346419 146.328007 
L 201.714769 148.121776 
L 202.072742 148.887212 
L 202.430715 149.174921 
L 202.86132 149.227972 
L 203.738095 149.048681 
L 205.304876 148.790602 
L 212.609603 147.96649 
L 216.391667 147.161469 
L 220.687345 146.019329 
L 223.852035 144.969445 
L 226.119198 143.987343 
L 228.267037 142.809309 
L 230.529012 141.311672 
L 232.479707 139.765422 
L 233.906411 138.362736 
L 234.944014 137.039118 
L 235.717029 135.694866 
L 236.303275 134.221932 
L 236.640496 132.991465 
L 236.645684 133.42019 
L 236.894709 141.498003 
L 237.372006 151.595388 
L 237.864868 157.508608 
L 238.471866 162.128014 
L 239.359017 167.083508 
L 240.432936 171.90634 
L 241.283771 174.789096 
L 242.020469 176.548537 
L 242.715663 177.662372 
L 243.416045 178.380307 
L 244.183872 178.852175 
L 245.122903 179.160061 
L 246.451035 179.34314 
L 248.894591 179.418006 
L 262.025461 179.387177 
L 298.896694 179.379868 
L 298.896694 179.379868 
" style="fill:none;stroke:#2ca02c;stroke-linecap:square;stroke-width:1.5;"/>
   </g>
   <g id="line2d_17">
    <path clip-path="url(#pcbc5ce7afb)" d="M 91.376033 174.507323 
L 91.547238 175.867886 
L 91.972655 177.517227 
L 92.527773 178.81914 
L 93.134771 179.700951 
L 93.793649 180.275986 
L 94.561475 180.648522 
L 95.583514 180.88293 
L 97.254056 181.008961 
L 101.731314 181.04813 
L 132.880165 181.04979 
L 133.046182 176.221777 
L 133.398967 172.334513 
L 133.917769 169.018844 
L 134.571459 166.242781 
L 135.370413 163.809439 
L 136.330196 161.595526 
L 137.466372 159.534277 
L 138.794504 157.587839 
L 140.345721 155.71307 
L 142.166715 153.866289 
L 144.345682 151.980104 
L 147.116083 149.888933 
L 155.437661 143.806689 
L 156.822862 142.391833 
L 157.829337 141.053549 
L 158.586787 139.679703 
L 159.167845 138.159409 
L 159.614014 136.349124 
L 159.951236 134.010925 
L 160.20026 130.605994 
L 160.366277 125.07462 
L 160.464849 113.690041 
L 160.521917 72.316972 
L 160.573798 43.289792 
L 160.641242 59.129606 
L 160.926583 129.679305 
L 161.253428 149.666136 
L 161.523205 154.82824 
L 161.782605 156.281892 
L 162.00569 156.56262 
L 162.208023 156.494134 
L 162.586748 156.06081 
L 163.639915 154.832024 
L 164.381802 154.343925 
L 165.341585 153.994609 
L 167.152202 153.619238 
L 172.609996 152.527155 
L 177.118382 151.371411 
L 180.511345 150.294079 
L 182.871893 149.315403 
L 185.273944 148.066878 
L 188.199986 146.287907 
L 190.539781 144.625151 
L 192.168818 143.205346 
L 193.356874 141.881766 
L 194.249213 140.557212 
L 194.928843 139.148356 
L 195.452833 137.538891 
L 195.85231 135.573135 
L 196.153215 132.927472 
L 196.371112 128.875866 
L 196.511188 121.700029 
L 196.589008 103.866443 
L 196.672017 43.180307 
L 196.755025 65.314776 
L 197.009238 128.150011 
L 197.346459 149.367034 
L 197.616236 154.649237 
L 197.875636 156.145066 
L 198.103909 156.44363 
L 198.306242 156.378291 
L 198.684967 155.949426 
L 199.74851 154.716234 
L 200.495585 154.22932 
L 201.465744 153.879995 
L 203.317866 153.498232 
L 208.578514 152.439636 
L 213.009081 151.297163 
L 216.453924 150.200056 
L 218.814471 149.220747 
L 221.112762 148.016476 
L 223.800155 146.349125 
L 226.067318 144.697411 
L 227.665227 143.269698 
L 228.837719 141.931213 
L 229.719682 140.589801 
L 230.394124 139.155855 
L 230.912926 137.517662 
L 231.312403 135.482387 
L 231.60812 132.759363 
L 231.820829 128.559911 
L 231.955717 121.063249 
L 232.028349 102.889906 
L 232.111357 43.034506 
L 232.189178 63.703675 
L 232.448579 128.349395 
L 232.7858 149.414658 
L 233.055576 154.617757 
L 233.314977 156.084242 
L 233.54325 156.372191 
L 233.750771 156.298764 
L 234.139872 155.851354 
L 235.172287 154.654922 
L 235.919362 154.162904 
L 236.640496 153.881169 
L 236.8117 159.174808 
L 237.195614 164.265705 
L 237.792236 169.197619 
L 238.580814 173.911226 
L 239.312324 177.058433 
L 239.955638 178.921187 
L 240.562636 180.044597 
L 241.18001 180.73851 
L 241.85964 181.169144 
L 242.705287 181.43107 
L 243.965975 181.565538 
L 246.585924 181.572328 
L 255.265475 181.313686 
L 262.409374 181.121191 
L 277.304169 181.055532 
L 298.896694 181.048771 
L 298.896694 181.048771 
" style="fill:none;stroke:#d62728;stroke-linecap:square;stroke-width:1.5;"/>
   </g>
   <g id="line2d_18">
    <path clip-path="url(#pcbc5ce7afb)" d="M 91.376033 174.507323 
L 91.552426 175.668546 
L 91.993407 177.155236 
L 92.558901 178.320551 
L 93.186651 179.126324 
L 93.881845 179.662855 
L 94.711928 180.015654 
L 95.837727 180.235911 
L 97.741729 180.350743 
L 103.438171 180.38255 
L 132.880165 180.383434 
L 133.046182 175.505318 
L 133.398967 171.508444 
L 133.922957 168.044481 
L 134.576647 165.173774 
L 135.370413 162.678418 
L 136.314632 160.436588 
L 137.41968 158.380844 
L 138.695932 156.475446 
L 140.148576 154.706234 
L 141.793178 153.054316 
L 143.6453 151.511007 
L 145.715318 150.077495 
L 148.023986 148.751595 
L 150.586866 147.538695 
L 153.424711 146.4445 
L 156.558273 145.477695 
L 160.01868 144.646122 
L 163.868188 143.953664 
L 168.241686 143.398038 
L 173.445267 142.96905 
L 180.257132 142.644638 
L 191.701897 142.355848 
L 236.640496 141.490506 
L 236.816888 147.487699 
L 237.23193 154.692244 
L 237.755919 160.040856 
L 238.466678 164.960609 
L 239.519845 170.659024 
L 240.438124 174.545954 
L 241.185198 176.811492 
L 241.864829 178.204064 
L 242.528895 179.08079 
L 243.229277 179.645067 
L 244.043795 180.011778 
L 245.128091 180.241855 
L 246.907581 180.363169 
L 251.732436 180.391713 
L 298.896694 180.381515 
L 298.896694 180.381515 
" style="fill:none;stroke:#9467bd;stroke-linecap:square;stroke-width:1.5;"/>
   </g>
   <g id="line2d_19">
    <path clip-path="url(#pcbc5ce7afb)" d="M 91.376033 174.507323 
L 91.536862 175.500185 
L 91.941527 176.590731 
L 92.517397 177.525784 
L 93.191839 178.20833 
L 93.970041 178.679383 
L 94.935012 178.994564 
L 96.304649 179.18991 
L 98.800085 179.285165 
L 108.454983 179.305227 
L 132.880165 179.305423 
L 133.046182 174.414527 
L 133.404155 170.283635 
L 133.943709 166.568747 
L 134.618151 163.435114 
L 135.432669 160.697113 
L 136.413205 158.179525 
L 137.590884 155.769739 
L 139.022777 153.352297 
L 140.854147 150.71212 
L 146.4157 142.987046 
L 147.323603 141.13872 
L 147.982481 139.28868 
L 148.470155 137.235663 
L 148.828128 134.720048 
L 149.082341 131.268495 
L 149.253545 125.64727 
L 149.352118 114.276541 
L 149.409186 70.185153 
L 149.461066 41.523727 
L 149.52851 58.291125 
L 149.819039 132.284887 
L 150.125132 151.219403 
L 150.379345 155.712859 
L 150.617994 156.778404 
L 150.799574 156.863513 
L 151.001907 156.643702 
L 151.479205 155.686103 
L 152.444176 153.852313 
L 153.232754 152.844941 
L 154.192537 151.9913 
L 155.655558 151.017513 
L 159.038145 149.104555 
L 163.468711 146.519697 
L 165.808506 144.902004 
L 167.447919 143.508159 
L 168.651539 142.200918 
L 169.56463 140.883946 
L 170.265012 139.48116 
L 170.804566 137.894449 
L 171.219607 135.960584 
L 171.530888 133.403059 
L 171.753973 129.631388 
L 171.904426 122.831237 
L 171.987434 106.630721 
L 172.07563 42.28009 
L 172.163826 66.881524 
L 172.412851 128.56265 
L 172.744884 149.833045 
L 173.009473 154.940161 
L 173.258498 156.257413 
L 173.460831 156.432923 
L 173.647599 156.283829 
L 174.031512 155.60955 
L 175.229944 153.435428 
L 176.034087 152.489716 
L 177.035374 151.66884 
L 178.622907 150.687889 
L 187.759004 145.394999 
L 189.569622 143.968674 
L 190.897754 142.648274 
L 191.899041 141.343936 
L 192.66168 139.987286 
L 193.253114 138.474447 
L 193.709659 136.672596 
L 194.057256 134.336401 
L 194.311469 130.976617 
L 194.482674 125.445713 
L 194.581246 114.445381 
L 194.638314 73.806032 
L 194.690194 42.254077 
L 194.757638 57.352377 
L 195.053355 130.759515 
L 195.375012 150.174524 
L 195.639601 154.96778 
L 195.888626 156.192668 
L 196.085771 156.341216 
L 196.277727 156.179579 
L 196.677205 155.469269 
L 197.834132 153.378044 
L 198.638275 152.427096 
L 199.634374 151.605117 
L 201.216719 150.620426 
L 209.958527 145.51238 
L 211.789897 144.071033 
L 213.133593 142.739163 
L 214.145256 141.428312 
L 214.918271 140.062958 
L 215.514893 138.550064 
L 215.971438 136.772499 
L 216.319035 134.492215 
L 216.573248 131.279201 
L 216.74964 125.973058 
L 216.853401 115.451637 
L 216.910469 79.474984 
L 216.967537 42.168163 
L 217.034981 57.633576 
L 217.32551 130.35148 
L 217.647167 149.987862 
L 217.911756 154.865064 
L 218.160781 156.116523 
L 218.357926 156.274529 
L 218.549882 156.118112 
L 218.944171 155.423436 
L 220.121851 153.300928 
L 220.931182 152.349741 
L 221.937657 151.523118 
L 223.55113 150.51945 
L 231.727444 145.720251 
L 233.615882 144.256206 
L 235.001083 142.909614 
L 236.038686 141.597557 
L 236.640496 140.609656 
L 236.822076 146.657703 
L 237.252682 154.413771 
L 237.766295 159.799304 
L 238.440738 164.505013 
L 239.390145 169.534877 
L 240.3188 173.366898 
L 241.091814 175.684746 
L 241.792196 177.129147 
L 242.471826 178.049253 
L 243.182585 178.646751 
L 243.991915 179.032874 
L 245.029519 179.268938 
L 246.642992 179.382411 
L 250.751901 179.373955 
L 270.144707 179.306123 
L 298.896694 179.303258 
L 298.896694 179.303258 
" style="fill:none;stroke:#8c564b;stroke-linecap:square;stroke-width:1.5;"/>
   </g>
   <g id="line2d_20">
    <path clip-path="url(#pcbc5ce7afb)" d="M 91.376033 174.507323 
L 91.531674 174.87608 
L 92.050475 175.501081 
L 92.77161 176.020919 
L 93.71064 176.416312 
L 94.960952 176.689089 
L 96.859767 176.853386 
L 100.787095 176.922762 
L 127.489816 176.930935 
L 132.880165 176.930952 
L 133.046182 171.89956 
L 133.414531 167.348945 
L 133.964461 163.23779 
L 134.633715 159.863268 
L 135.427481 156.986492 
L 136.387264 154.342422 
L 137.57532 151.728739 
L 139.090221 148.948358 
L 141.31588 145.371434 
L 144.070717 140.890212 
L 145.144636 138.700276 
L 145.876147 136.707557 
L 146.400136 134.631658 
L 146.789238 132.144989 
L 147.074579 128.763782 
L 147.271723 123.545875 
L 147.396236 113.868976 
L 147.474056 85.314639 
L 147.536312 62.206758 
L 147.598568 75.260662 
L 147.842405 121.628185 
L 148.24707 140.184275 
L 148.584291 147.032242 
L 148.905948 149.637536 
L 149.206853 150.544049 
L 149.471442 150.758093 
L 149.736031 150.691158 
L 150.161448 150.309444 
L 152.48568 147.914654 
L 153.953888 146.909096 
L 156.874742 145.236644 
L 162.239151 142.13491 
L 164.687895 140.461046 
L 166.337684 139.075902 
L 167.510176 137.810207 
L 168.366198 136.565223 
L 169.009512 135.238058 
L 169.502374 133.703333 
L 169.886287 131.746458 
L 170.182004 128.988824 
L 170.399901 124.651065 
L 170.550353 116.506965 
L 170.63855 97.347924 
L 170.721558 65.962576 
L 170.789002 78.257749 
L 171.022463 117.893589 
L 171.47382 135.325481 
L 171.878486 144.476418 
L 172.231271 148.034629 
L 172.563304 149.449304 
L 172.864209 149.917724 
L 173.139174 149.985614 
L 173.486771 149.814635 
L 174.176777 149.162246 
L 175.613857 147.841343 
L 176.96793 146.936982 
L 179.432238 145.610824 
L 184.770707 142.734055 
L 187.390655 141.065314 
L 189.211649 139.65337 
L 190.513841 138.371555 
L 191.463248 137.131878 
L 192.174006 135.839801 
L 192.718748 134.377865 
L 193.138977 132.58569 
L 193.460634 130.191297 
L 193.704471 126.572239 
L 193.875676 120.411561 
L 193.984624 107.273889 
L 194.09876 65.451868 
L 194.181769 83.910742 
L 194.389289 117.639846 
L 194.825083 134.876605 
L 195.234936 144.334659 
L 195.587721 147.936746 
L 195.919754 149.364156 
L 196.220659 149.835916 
L 196.495624 149.904211 
L 196.838033 149.735991 
L 197.512475 149.096672 
L 198.980684 147.732156 
L 200.345132 146.807764 
L 202.9132 145.393908 
L 207.597979 142.779701 
L 210.098603 141.130129 
L 211.852153 139.717784 
L 213.112841 138.425825 
L 214.036308 137.168204 
L 214.731502 135.846893 
L 215.265868 134.341069 
L 215.675721 132.495966 
L 215.99219 129.983598 
L 216.230839 126.120936 
L 216.396855 119.312811 
L 216.495428 105.100741 
L 216.599188 64.991662 
L 216.677008 81.186965 
L 216.894905 117.977923 
L 217.330698 135.323854 
L 217.730176 144.411624 
L 218.077773 147.918424 
L 218.409806 149.326609 
L 218.710711 149.785392 
L 218.985676 149.845257 
L 219.333273 149.665834 
L 220.033655 148.989223 
L 221.470736 147.644382 
L 222.850748 146.696659 
L 225.527764 145.191129 
L 229.740434 142.76246 
L 232.126921 141.133623 
L 233.807839 139.728474 
L 235.027023 138.428038 
L 235.92455 137.15142 
L 236.598992 135.807944 
L 236.640496 135.706632 
L 236.827264 142.196566 
L 237.288998 151.704896 
L 237.776671 157.385358 
L 238.352541 161.564745 
L 239.125556 165.510348 
L 240.126843 169.483163 
L 241.05031 172.30895 
L 241.85964 174.114845 
L 242.617091 175.291398 
L 243.374541 176.071752 
L 244.178684 176.585861 
L 245.117715 176.916871 
L 246.347275 177.100399 
L 248.349849 177.144539 
L 277.719211 176.927348 
L 298.896694 176.925895 
L 298.896694 176.925895 
" style="fill:none;stroke:#e377c2;stroke-linecap:square;stroke-width:1.5;"/>
   </g>
   <g id="line2d_21">
    <path clip-path="url(#pcbc5ce7afb)" d="M 91.376033 174.507323 
L 91.54205 175.406334 
L 91.967467 176.479305 
L 92.558901 177.387619 
L 93.248907 178.047642 
L 94.047862 178.503026 
L 95.049149 178.807881 
L 96.491417 178.994948 
L 99.199562 179.082908 
L 111.111248 179.099026 
L 132.880165 179.099139 
L 133.046182 174.180991 
L 133.409343 169.954834 
L 133.948897 166.209978 
L 134.623339 163.04619 
L 135.437857 160.277081 
L 136.418393 157.728601 
L 137.590884 155.303119 
L 138.986461 152.931154 
L 140.682942 150.494948 
L 142.887849 147.736006 
L 148.309326 141.120254 
L 149.429938 139.284067 
L 150.228893 137.552248 
L 150.820326 135.735804 
L 151.266496 133.625346 
L 151.598529 130.935439 
L 151.842366 127.016213 
L 152.008382 120.427524 
L 152.106955 106.795525 
L 152.210715 61.554042 
L 152.293723 81.154598 
L 152.506432 120.558457 
L 152.905909 138.981695 
L 153.248318 146.19593 
L 153.575163 149.007393 
L 153.891632 150.074423 
L 154.187349 150.400283 
L 154.488254 150.413061 
L 154.949988 150.170388 
L 156.952562 148.939069 
L 158.540095 148.359414 
L 165.725498 145.950256 
L 169.279289 144.460076 
L 172.065254 143.063077 
L 174.083393 141.813252 
L 175.598293 140.621182 
L 176.786349 139.407895 
L 177.720192 138.139849 
L 178.451702 136.772106 
L 179.022384 135.225848 
L 179.463366 133.36941 
L 179.800587 130.947524 
L 180.0548 127.38251 
L 180.231192 121.522325 
L 180.345329 108.969348 
L 180.464653 63.245099 
L 180.552849 85.154328 
L 180.755182 118.946743 
L 181.175411 136.685977 
L 181.548948 144.822336 
L 181.891357 148.04263 
L 182.22339 149.343272 
L 182.534671 149.793725 
L 182.840764 149.879258 
L 183.255806 149.736978 
L 186.311548 148.243705 
L 195.219372 145.331755 
L 198.352934 143.942854 
L 200.827618 142.613708 
L 202.669364 141.382297 
L 204.06494 140.18948 
L 205.149236 138.976006 
L 206.00007 137.692262 
L 206.664136 136.285772 
L 207.182938 134.653884 
L 207.582415 132.640152 
L 207.888508 129.892075 
L 208.111593 125.753481 
L 208.267233 118.17232 
L 208.35543 101.756919 
L 208.448814 62.898972 
L 208.516258 76.813077 
L 208.749719 119.458147 
L 209.169948 136.993827 
L 209.538298 144.851597 
L 209.880707 148.007322 
L 210.21274 149.27605 
L 210.524021 149.710473 
L 210.830114 149.787035 
L 211.250343 149.635171 
L 214.202324 148.153886 
L 223.400678 145.023429 
L 226.326719 143.649618 
L 228.62501 142.334814 
L 230.35262 141.098959 
L 231.665188 139.892681 
L 232.676851 138.666381 
L 233.470618 137.354799 
L 234.087992 135.900404 
L 234.570477 134.177751 
L 234.944014 131.975653 
L 235.224167 128.913498 
L 235.4265 124.069194 
L 235.561388 114.736992 
L 235.639209 90.496605 
L 235.711841 62.621177 
L 235.774097 75.38722 
L 236.017934 119.900737 
L 236.438163 137.276566 
L 237.314938 160.114725 
L 237.78186 164.236494 
L 238.492618 168.40742 
L 239.509469 173.104024 
L 240.308424 175.839025 
L 241.003618 177.47422 
L 241.662496 178.487935 
L 242.336938 179.133586 
L 243.094388 179.550234 
L 244.043795 179.807018 
L 245.44456 179.933519 
L 248.246089 179.918352 
L 260.437928 179.505683 
L 268.640182 179.192761 
L 280.46886 179.111534 
L 298.896694 179.097292 
L 298.896694 179.097292 
" style="fill:none;stroke:#7f7f7f;stroke-linecap:square;stroke-width:1.5;"/>
   </g>
   <g id="line2d_22">
    <path clip-path="url(#pcbc5ce7afb)" d="M 91.376033 174.507323 
L 91.562802 175.266943 
L 92.066039 176.483928 
L 92.673037 177.393033 
L 93.368231 178.042245 
L 94.172374 178.486812 
L 95.184037 178.78138 
L 96.662622 178.959427 
L 99.541971 179.039563 
L 114.441955 179.052092 
L 132.880165 179.052175 
L 133.046182 174.080103 
L 133.404155 169.825848 
L 133.933333 166.103596 
L 134.592211 163.003558 
L 135.391165 160.301411 
L 136.350948 157.8362 
L 137.492312 155.51776 
L 138.836008 153.293153 
L 140.428729 151.090723 
L 142.353483 148.816237 
L 144.869671 146.204972 
L 150.379345 140.598844 
L 151.608905 138.948051 
L 152.464928 137.432523 
L 153.092678 135.869938 
L 153.569975 134.067168 
L 153.927948 131.814441 
L 154.197725 128.608732 
L 154.389682 123.427308 
L 154.514194 113.120027 
L 154.592014 81.130825 
L 154.649083 60.701668 
L 154.711339 73.523348 
L 154.960364 121.101595 
L 155.390969 141.005678 
L 155.72819 147.91429 
L 156.049847 150.550411 
L 156.35594 151.500182 
L 156.636093 151.756366 
L 156.926622 151.724711 
L 157.419483 151.396681 
L 158.91882 150.334001 
L 160.106876 149.829967 
L 162.368851 149.164959 
L 168.490711 147.376284 
L 173.528275 145.662324 
L 176.698153 144.372884 
L 178.830428 143.271603 
L 180.651421 142.080755 
L 182.275271 140.756159 
L 183.608591 139.389036 
L 184.620254 138.041327 
L 185.382893 136.656961 
L 185.958762 135.145532 
L 186.399744 133.342989 
L 186.736965 130.972421 
L 186.98599 127.537505 
L 187.162382 121.746457 
L 187.271331 110.258723 
L 187.395843 61.64297 
L 187.489227 86.176423 
L 187.686372 119.205404 
L 188.122165 139.139191 
L 188.47495 146.921814 
L 188.801795 149.898863 
L 189.118264 151.036047 
L 189.408793 151.37771 
L 189.699322 151.393124 
L 190.140304 151.150386 
L 192.023554 149.933239 
L 193.382814 149.443739 
L 197.818568 148.230751 
L 202.544851 146.769606 
L 206.970229 145.177741 
L 209.834014 143.931006 
L 211.846965 142.818245 
L 213.527882 141.637189 
L 214.975339 140.35209 
L 216.142643 139.025305 
L 217.040169 137.674139 
L 217.7198 136.251827 
L 218.238601 134.646361 
L 218.638079 132.662209 
L 218.938983 129.990348 
L 219.162068 125.859737 
L 219.312521 118.526113 
L 219.400717 102.056664 
L 219.494101 61.085971 
L 219.566733 77.185181 
L 219.795006 119.823351 
L 220.2308 139.647984 
L 220.578397 147.081391 
L 220.905242 149.946898 
L 221.221711 151.025206 
L 221.507052 151.33413 
L 221.797581 151.335367 
L 222.248938 151.072536 
L 224.038804 149.881381 
L 225.351372 149.381575 
L 228.775463 148.415391 
L 233.460242 146.973715 
L 236.640496 145.856947 
L 236.816888 151.550922 
L 237.216366 157.61115 
L 237.755919 162.480689 
L 238.492618 167.065662 
L 239.431649 171.546922 
L 240.272107 174.565302 
L 241.003618 176.418259 
L 241.688436 177.581135 
L 242.373254 178.3225 
L 243.109952 178.796477 
L 243.986727 179.090412 
L 245.190347 179.242705 
L 247.338186 179.252765 
L 260.328979 179.076773 
L 292.660698 179.049602 
L 298.896694 179.049671 
L 298.896694 179.049671 
" style="fill:none;stroke:#bcbd22;stroke-linecap:square;stroke-width:1.5;"/>
   </g>
   <g id="line2d_23">
    <path clip-path="url(#pcbc5ce7afb)" d="M 91.376033 174.507323 
L 91.54205 175.709081 
L 91.957091 177.101978 
L 92.517397 178.2406 
L 93.150335 179.042207 
L 93.850717 179.576791 
L 94.685988 179.930014 
L 95.822163 180.153138 
L 97.731353 180.270582 
L 103.287719 180.304057 
L 132.880165 180.305054 
L 133.046182 175.452668 
L 133.398967 171.481551 
L 133.928145 167.978435 
L 134.592211 165.035533 
L 135.401541 162.450857 
L 136.3717 160.093501 
L 137.52344 157.878739 
L 138.8827 155.749733 
L 140.496174 153.641318 
L 142.46762 151.440321 
L 145.180952 148.769255 
L 149.55445 144.481484 
L 150.986343 142.733194 
L 151.98763 141.166137 
L 152.724329 139.603716 
L 153.279446 137.903249 
L 153.699676 135.886012 
L 154.016145 133.215634 
L 154.239229 129.324892 
L 154.384494 122.647054 
L 154.467502 106.749359 
L 154.555698 43.417659 
L 154.643895 68.406334 
L 154.887731 128.761737 
L 155.214576 149.600304 
L 155.479165 154.711349 
L 155.733378 156.083827 
L 155.946087 156.302232 
L 156.143231 156.188131 
L 156.537521 155.624037 
L 157.606252 154.081728 
L 158.374079 153.398102 
L 159.344238 152.847455 
L 160.983651 152.210027 
L 171.458256 148.457475 
L 174.254597 147.170137 
L 176.200103 146.03625 
L 177.823952 144.834281 
L 179.235093 143.516445 
L 180.392021 142.136567 
L 181.289548 140.723836 
L 181.979554 139.221259 
L 182.508731 137.523741 
L 182.908209 135.475652 
L 183.209114 132.705148 
L 183.421822 128.518004 
L 183.556711 121.125381 
L 183.629343 103.796222 
L 183.712351 43.496402 
L 183.79536 66.062976 
L 184.044384 128.38188 
L 184.376417 149.361094 
L 184.641006 154.479267 
L 184.895219 155.888814 
L 185.113116 156.131416 
L 185.31026 156.027718 
L 185.694174 155.49556 
L 186.809597 153.912572 
L 187.582612 153.243276 
L 188.563147 152.702306 
L 190.259628 152.059167 
L 199.457981 148.812833 
L 202.669364 147.405764 
L 204.780886 146.248205 
L 206.441052 145.087718 
L 207.862568 143.82508 
L 209.050624 142.476042 
L 209.989655 141.076844 
L 210.715977 139.594733 
L 211.271095 137.95245 
L 211.696512 135.981879 
L 212.018169 133.373773 
L 212.246442 129.578994 
L 212.396895 123.043053 
L 212.479903 108.906555 
L 212.573287 43.373281 
L 212.67186 72.842053 
L 212.900132 127.876618 
L 213.237353 149.318221 
L 213.501942 154.417153 
L 213.756155 155.81866 
L 213.974052 156.05847 
L 214.171196 155.953893 
L 214.55511 155.421884 
L 215.670533 153.840243 
L 216.443548 153.170179 
L 217.429271 152.624727 
L 219.136128 151.973627 
L 227.935004 148.837138 
L 231.203455 147.399074 
L 233.351293 146.222956 
L 235.006271 145.06748 
L 236.401847 143.824616 
L 236.640496 143.578446 
L 236.816888 149.353417 
L 237.23193 156.12964 
L 237.766295 161.301285 
L 238.51337 166.305821 
L 239.525033 171.598893 
L 240.386244 175.032981 
L 241.112566 177.078911 
L 241.787008 178.351358 
L 242.456262 179.15802 
L 243.172209 179.678239 
L 244.023043 180.015803 
L 245.190347 180.222796 
L 247.203298 180.320926 
L 254.025539 180.320798 
L 298.896694 180.303525 
L 298.896694 180.303525 
" style="fill:none;stroke:#17becf;stroke-linecap:square;stroke-width:1.5;"/>
   </g>
   <g id="line2d_24">
    <path clip-path="url(#pcbc5ce7afb)" d="M 91.376033 174.507323 
L 91.547238 175.213895 
L 92.024535 176.279969 
L 92.631533 177.109758 
L 93.342291 177.709973 
L 94.18275 178.125431 
L 95.267045 178.401641 
L 96.901271 178.565732 
L 100.294233 178.634984 
L 123.277147 178.643653 
L 132.880165 178.643697 
L 133.046182 173.673763 
L 133.409343 169.360056 
L 133.938521 165.639275 
L 134.587023 162.610525 
L 135.360037 160.04854 
L 136.283504 157.751611 
L 137.398928 155.574581 
L 138.747812 153.435283 
L 140.423541 151.20543 
L 142.841157 148.392703 
L 145.793138 144.912562 
L 146.950066 143.191352 
L 147.738645 141.626987 
L 148.314514 139.984494 
L 148.739932 138.071281 
L 149.051213 135.580731 
L 149.26911 131.9026 
L 149.409186 125.364243 
L 149.481818 110.598486 
L 149.564826 33.332727 
L 149.668587 63.032649 
L 149.933176 137.468475 
L 150.228893 159.574373 
L 150.441601 162.538275 
L 150.560926 162.752598 
L 150.597242 162.729401 
L 150.742506 162.406077 
L 151.173112 160.693896 
L 151.951314 157.906396 
L 152.605004 156.367388 
L 153.32095 155.237743 
L 154.213289 154.252287 
L 155.479165 153.204443 
L 157.388355 151.931664 
L 160.231388 150.321395 
L 169.118461 145.457531 
L 170.617798 144.281046 
L 171.712469 143.1464 
L 172.54774 141.964717 
L 173.191054 140.669123 
L 173.689103 139.151763 
L 174.067829 137.248126 
L 174.347981 134.621145 
L 174.545126 130.454281 
L 174.66445 122.837404 
L 174.726707 101.79515 
L 174.799339 33.474716 
L 174.877159 52.058611 
L 175.204004 140.894389 
L 175.484157 159.564444 
L 175.696866 162.29902 
L 175.821378 162.509133 
L 175.857694 162.485381 
L 176.008147 162.157954 
L 176.44394 160.474095 
L 177.232519 157.722002 
L 177.891397 156.209185 
L 178.612531 155.098639 
L 179.515246 154.125466 
L 180.801874 153.085317 
L 182.768132 151.801787 
L 185.787558 150.116796 
L 193.631839 145.847181 
L 195.323132 144.610324 
L 196.521564 143.466281 
L 197.424279 142.300549 
L 198.114285 141.046043 
L 198.643463 139.618505 
L 199.053316 137.845148 
L 199.359409 135.46673 
L 199.577306 131.888165 
L 199.717382 125.620061 
L 199.795202 110.081438 
L 199.878211 33.42625 
L 199.981971 62.787294 
L 200.24656 136.529386 
L 200.547465 158.972084 
L 200.765362 162.146915 
L 200.90025 162.415961 
L 200.931378 162.399657 
L 201.071455 162.121741 
L 201.45018 160.702581 
L 202.301014 157.691813 
L 202.959893 156.170855 
L 203.681027 155.054424 
L 204.583742 154.077139 
L 205.87037 153.033052 
L 207.847004 151.736098 
L 210.939062 149.99557 
L 218.140029 146.019165 
L 219.914331 144.738039 
L 221.154267 143.576742 
L 222.077733 142.411852 
L 222.783304 141.163488 
L 223.322857 139.753239 
L 223.737899 138.029308 
L 224.04918 135.746803 
L 224.277452 132.266708 
L 224.422717 126.386285 
L 224.505725 112.255479 
L 224.593921 33.410096 
L 224.70287 65.495775 
L 224.957083 135.937999 
L 225.257988 158.744952 
L 225.475884 162.043872 
L 225.615961 162.339691 
L 225.641901 162.328007 
L 225.771601 162.091647 
L 226.11401 160.848551 
L 227.021913 157.622645 
L 227.680791 156.109602 
L 228.401926 154.997548 
L 229.30464 154.022338 
L 230.596457 152.97426 
L 232.593843 151.660981 
L 235.774097 149.86024 
L 236.640496 149.395225 
L 236.8117 154.86057 
L 237.195614 160.404969 
L 237.724791 164.891601 
L 238.43555 169.001083 
L 239.276008 172.6161 
L 240.054211 175.057141 
L 240.764969 176.601978 
L 241.454975 177.594409 
L 242.165733 178.237012 
L 242.9595 178.654707 
L 243.955599 178.916794 
L 245.387492 179.04435 
L 247.882928 179.013294 
L 258.622122 178.696004 
L 276.863188 178.643332 
L 298.896694 178.641023 
L 298.896694 178.641023 
" style="fill:none;stroke:#1f77b4;stroke-linecap:square;stroke-width:1.5;"/>
   </g>
   <g id="patch_3">
    <path d="M 81 189 
L 81 25.92 
" style="fill:none;stroke:#000000;stroke-linecap:square;stroke-linejoin:miter;stroke-width:0.8;"/>
   </g>
   <g id="patch_4">
    <path d="M 309.272727 189 
L 309.272727 25.92 
" style="fill:none;stroke:#000000;stroke-linecap:square;stroke-linejoin:miter;stroke-width:0.8;"/>
   </g>
   <g id="patch_5">
    <path d="M 81 189 
L 309.272727 189 
" style="fill:none;stroke:#000000;stroke-linecap:square;stroke-linejoin:miter;stroke-width:0.8;"/>
   </g>
   <g id="patch_6">
    <path d="M 81 25.92 
L 309.272727 25.92 
" style="fill:none;stroke:#000000;stroke-linecap:square;stroke-linejoin:miter;stroke-width:0.8;"/>
   </g>
   <g id="text_16">
    <!-- D1 modulation dSPN -->
    <g transform="translate(133.196676 19.92)scale(0.12 -0.12)">
     <defs>
      <path d="M 1259 4147 
L 1259 519 
L 2022 519 
Q 2988 519 3436 956 
Q 3884 1394 3884 2338 
Q 3884 3275 3436 3711 
Q 2988 4147 2022 4147 
L 1259 4147 
z
M 628 4666 
L 1925 4666 
Q 3281 4666 3915 4102 
Q 4550 3538 4550 2338 
Q 4550 1131 3912 565 
Q 3275 0 1925 0 
L 628 0 
L 628 4666 
z
" id="DejaVuSans-44" transform="scale(0.015625)"/>
      <path d="M 2906 2969 
L 2906 4863 
L 3481 4863 
L 3481 0 
L 2906 0 
L 2906 525 
Q 2725 213 2448 61 
Q 2172 -91 1784 -91 
Q 1150 -91 751 415 
Q 353 922 353 1747 
Q 353 2572 751 3078 
Q 1150 3584 1784 3584 
Q 2172 3584 2448 3432 
Q 2725 3281 2906 2969 
z
M 947 1747 
Q 947 1113 1208 752 
Q 1469 391 1925 391 
Q 2381 391 2643 752 
Q 2906 1113 2906 1747 
Q 2906 2381 2643 2742 
Q 2381 3103 1925 3103 
Q 1469 3103 1208 2742 
Q 947 2381 947 1747 
z
" id="DejaVuSans-64" transform="scale(0.015625)"/>
      <path d="M 544 1381 
L 544 3500 
L 1119 3500 
L 1119 1403 
Q 1119 906 1312 657 
Q 1506 409 1894 409 
Q 2359 409 2629 706 
Q 2900 1003 2900 1516 
L 2900 3500 
L 3475 3500 
L 3475 0 
L 2900 0 
L 2900 538 
Q 2691 219 2414 64 
Q 2138 -91 1772 -91 
Q 1169 -91 856 284 
Q 544 659 544 1381 
z
M 1991 3584 
L 1991 3584 
z
" id="DejaVuSans-75" transform="scale(0.015625)"/>
      <path d="M 3425 4513 
L 3425 3897 
Q 3066 4069 2747 4153 
Q 2428 4238 2131 4238 
Q 1616 4238 1336 4038 
Q 1056 3838 1056 3469 
Q 1056 3159 1242 3001 
Q 1428 2844 1947 2747 
L 2328 2669 
Q 3034 2534 3370 2195 
Q 3706 1856 3706 1288 
Q 3706 609 3251 259 
Q 2797 -91 1919 -91 
Q 1588 -91 1214 -16 
Q 841 59 441 206 
L 441 856 
Q 825 641 1194 531 
Q 1563 422 1919 422 
Q 2459 422 2753 634 
Q 3047 847 3047 1241 
Q 3047 1584 2836 1778 
Q 2625 1972 2144 2069 
L 1759 2144 
Q 1053 2284 737 2584 
Q 422 2884 422 3419 
Q 422 4038 858 4394 
Q 1294 4750 2059 4750 
Q 2388 4750 2728 4690 
Q 3069 4631 3425 4513 
z
" id="DejaVuSans-53" transform="scale(0.015625)"/>
      <path d="M 1259 4147 
L 1259 2394 
L 2053 2394 
Q 2494 2394 2734 2622 
Q 2975 2850 2975 3272 
Q 2975 3691 2734 3919 
Q 2494 4147 2053 4147 
L 1259 4147 
z
M 628 4666 
L 2053 4666 
Q 2838 4666 3239 4311 
Q 3641 3956 3641 3272 
Q 3641 2581 3239 2228 
Q 2838 1875 2053 1875 
L 1259 1875 
L 1259 0 
L 628 0 
L 628 4666 
z
" id="DejaVuSans-50" transform="scale(0.015625)"/>
      <path d="M 628 4666 
L 1478 4666 
L 3547 763 
L 3547 4666 
L 4159 4666 
L 4159 0 
L 3309 0 
L 1241 3903 
L 1241 0 
L 628 0 
L 628 4666 
z
" id="DejaVuSans-4e" transform="scale(0.015625)"/>
     </defs>
     <use xlink:href="#DejaVuSans-44"/>
     <use x="77.001953" xlink:href="#DejaVuSans-31"/>
     <use x="140.625" xlink:href="#DejaVuSans-20"/>
     <use x="172.412109" xlink:href="#DejaVuSans-6d"/>
     <use x="269.824219" xlink:href="#DejaVuSans-6f"/>
     <use x="331.005859" xlink:href="#DejaVuSans-64"/>
     <use x="394.482422" xlink:href="#DejaVuSans-75"/>
     <use x="457.861328" xlink:href="#DejaVuSans-6c"/>
     <use x="485.644531" xlink:href="#DejaVuSans-61"/>
     <use x="546.923828" xlink:href="#DejaVuSans-74"/>
     <use x="586.132812" xlink:href="#DejaVuSans-69"/>
     <use x="613.916016" xlink:href="#DejaVuSans-6f"/>
     <use x="675.097656" xlink:href="#DejaVuSans-6e"/>
     <use x="738.476562" xlink:href="#DejaVuSans-20"/>
     <use x="770.263672" xlink:href="#DejaVuSans-64"/>
     <use x="833.740234" xlink:href="#DejaVuSans-53"/>
     <use x="897.216797" xlink:href="#DejaVuSans-50"/>
     <use x="957.519531" xlink:href="#DejaVuSans-4e"/>
    </g>
   </g>
   <g id="legend_1">
    <g id="patch_7">
     <path d="M 298.272727 38.92 
L 302.272727 38.92 
Q 304.272727 38.92 304.272727 36.92 
L 304.272727 32.92 
Q 304.272727 30.92 302.272727 30.92 
L 298.272727 30.92 
Q 296.272727 30.92 296.272727 32.92 
L 296.272727 36.92 
Q 296.272727 38.92 298.272727 38.92 
z
" style="fill:#ffffff;opacity:0.8;stroke:#cccccc;stroke-linejoin:miter;"/>
    </g>
   </g>
  </g>
  <g id="axes_2">
   <g id="patch_8">
    <path d="M 354.927273 189 
L 583.2 189 
L 583.2 25.92 
L 354.927273 25.92 
z
" style="fill:#ffffff;"/>
   </g>
   <g id="matplotlib.axis_3">
    <g id="xtick_7">
     <g id="line2d_25">
      <g>
       <use style="stroke:#000000;stroke-width:0.8;" x="365.303306" xlink:href="#ma27972ff96" y="189"/>
      </g>
     </g>
     <g id="text_17">
      <!-- 0 -->
      <g transform="translate(362.122056 203.598437)scale(0.1 -0.1)">
       <use xlink:href="#DejaVuSans-30"/>
      </g>
     </g>
    </g>
    <g id="xtick_8">
     <g id="line2d_26">
      <g>
       <use style="stroke:#000000;stroke-width:0.8;" x="406.808476" xlink:href="#ma27972ff96" y="189"/>
      </g>
     </g>
     <g id="text_18">
      <!-- 200 -->
      <g transform="translate(397.264726 203.598437)scale(0.1 -0.1)">
       <use xlink:href="#DejaVuSans-32"/>
       <use x="63.623047" xlink:href="#DejaVuSans-30"/>
       <use x="127.246094" xlink:href="#DejaVuSans-30"/>
      </g>
     </g>
    </g>
    <g id="xtick_9">
     <g id="line2d_27">
      <g>
       <use style="stroke:#000000;stroke-width:0.8;" x="448.313646" xlink:href="#ma27972ff96" y="189"/>
      </g>
     </g>
     <g id="text_19">
      <!-- 400 -->
      <g transform="translate(438.769896 203.598437)scale(0.1 -0.1)">
       <use xlink:href="#DejaVuSans-34"/>
       <use x="63.623047" xlink:href="#DejaVuSans-30"/>
       <use x="127.246094" xlink:href="#DejaVuSans-30"/>
      </g>
     </g>
    </g>
    <g id="xtick_10">
     <g id="line2d_28">
      <g>
       <use style="stroke:#000000;stroke-width:0.8;" x="489.818815" xlink:href="#ma27972ff96" y="189"/>
      </g>
     </g>
     <g id="text_20">
      <!-- 600 -->
      <g transform="translate(480.275065 203.598437)scale(0.1 -0.1)">
       <use xlink:href="#DejaVuSans-36"/>
       <use x="63.623047" xlink:href="#DejaVuSans-30"/>
       <use x="127.246094" xlink:href="#DejaVuSans-30"/>
      </g>
     </g>
    </g>
    <g id="xtick_11">
     <g id="line2d_29">
      <g>
       <use style="stroke:#000000;stroke-width:0.8;" x="531.323985" xlink:href="#ma27972ff96" y="189"/>
      </g>
     </g>
     <g id="text_21">
      <!-- 800 -->
      <g transform="translate(521.780235 203.598437)scale(0.1 -0.1)">
       <use xlink:href="#DejaVuSans-38"/>
       <use x="63.623047" xlink:href="#DejaVuSans-30"/>
       <use x="127.246094" xlink:href="#DejaVuSans-30"/>
      </g>
     </g>
    </g>
    <g id="xtick_12">
     <g id="line2d_30">
      <g>
       <use style="stroke:#000000;stroke-width:0.8;" x="572.829155" xlink:href="#ma27972ff96" y="189"/>
      </g>
     </g>
     <g id="text_22">
      <!-- 1000 -->
      <g transform="translate(560.104155 203.598437)scale(0.1 -0.1)">
       <use xlink:href="#DejaVuSans-31"/>
       <use x="63.623047" xlink:href="#DejaVuSans-30"/>
       <use x="127.246094" xlink:href="#DejaVuSans-30"/>
       <use x="190.869141" xlink:href="#DejaVuSans-30"/>
      </g>
     </g>
    </g>
    <g id="text_23">
     <!-- Time (ms) -->
     <g transform="translate(443.864418 217.276563)scale(0.1 -0.1)">
      <use xlink:href="#DejaVuSans-54"/>
      <use x="57.958984" xlink:href="#DejaVuSans-69"/>
      <use x="85.742188" xlink:href="#DejaVuSans-6d"/>
      <use x="183.154297" xlink:href="#DejaVuSans-65"/>
      <use x="244.677734" xlink:href="#DejaVuSans-20"/>
      <use x="276.464844" xlink:href="#DejaVuSans-28"/>
      <use x="315.478516" xlink:href="#DejaVuSans-6d"/>
      <use x="412.890625" xlink:href="#DejaVuSans-73"/>
      <use x="464.990234" xlink:href="#DejaVuSans-29"/>
     </g>
    </g>
   </g>
   <g id="matplotlib.axis_4">
    <g id="ytick_8">
     <g id="line2d_31">
      <g>
       <use style="stroke:#000000;stroke-width:0.8;" x="354.927273" xlink:href="#m92a0ae60d9" y="166.761818"/>
      </g>
     </g>
     <g id="text_24">
      <!-- 0.96 -->
      <g transform="translate(325.661648 170.561037)scale(0.1 -0.1)">
       <defs>
        <path d="M 684 794 
L 1344 794 
L 1344 0 
L 684 0 
L 684 794 
z
" id="DejaVuSans-2e" transform="scale(0.015625)"/>
        <path d="M 703 97 
L 703 672 
Q 941 559 1184 500 
Q 1428 441 1663 441 
Q 2288 441 2617 861 
Q 2947 1281 2994 2138 
Q 2813 1869 2534 1725 
Q 2256 1581 1919 1581 
Q 1219 1581 811 2004 
Q 403 2428 403 3163 
Q 403 3881 828 4315 
Q 1253 4750 1959 4750 
Q 2769 4750 3195 4129 
Q 3622 3509 3622 2328 
Q 3622 1225 3098 567 
Q 2575 -91 1691 -91 
Q 1453 -91 1209 -44 
Q 966 3 703 97 
z
M 1959 2075 
Q 2384 2075 2632 2365 
Q 2881 2656 2881 3163 
Q 2881 3666 2632 3958 
Q 2384 4250 1959 4250 
Q 1534 4250 1286 3958 
Q 1038 3666 1038 3163 
Q 1038 2656 1286 2365 
Q 1534 2075 1959 2075 
z
" id="DejaVuSans-39" transform="scale(0.015625)"/>
       </defs>
       <use xlink:href="#DejaVuSans-30"/>
       <use x="63.623047" xlink:href="#DejaVuSans-2e"/>
       <use x="95.410156" xlink:href="#DejaVuSans-39"/>
       <use x="159.033203" xlink:href="#DejaVuSans-36"/>
      </g>
     </g>
    </g>
    <g id="ytick_9">
     <g id="line2d_32">
      <g>
       <use style="stroke:#000000;stroke-width:0.8;" x="354.927273" xlink:href="#m92a0ae60d9" y="137.110909"/>
      </g>
     </g>
     <g id="text_25">
      <!-- 0.98 -->
      <g transform="translate(325.661648 140.910128)scale(0.1 -0.1)">
       <use xlink:href="#DejaVuSans-30"/>
       <use x="63.623047" xlink:href="#DejaVuSans-2e"/>
       <use x="95.410156" xlink:href="#DejaVuSans-39"/>
       <use x="159.033203" xlink:href="#DejaVuSans-38"/>
      </g>
     </g>
    </g>
    <g id="ytick_10">
     <g id="line2d_33">
      <g>
       <use style="stroke:#000000;stroke-width:0.8;" x="354.927273" xlink:href="#m92a0ae60d9" y="107.46"/>
      </g>
     </g>
     <g id="text_26">
      <!-- 1.00 -->
      <g transform="translate(325.661648 111.259219)scale(0.1 -0.1)">
       <use xlink:href="#DejaVuSans-31"/>
       <use x="63.623047" xlink:href="#DejaVuSans-2e"/>
       <use x="95.410156" xlink:href="#DejaVuSans-30"/>
       <use x="159.033203" xlink:href="#DejaVuSans-30"/>
      </g>
     </g>
    </g>
    <g id="ytick_11">
     <g id="line2d_34">
      <g>
       <use style="stroke:#000000;stroke-width:0.8;" x="354.927273" xlink:href="#m92a0ae60d9" y="77.809091"/>
      </g>
     </g>
     <g id="text_27">
      <!-- 1.02 -->
      <g transform="translate(325.661648 81.60831)scale(0.1 -0.1)">
       <use xlink:href="#DejaVuSans-31"/>
       <use x="63.623047" xlink:href="#DejaVuSans-2e"/>
       <use x="95.410156" xlink:href="#DejaVuSans-30"/>
       <use x="159.033203" xlink:href="#DejaVuSans-32"/>
      </g>
     </g>
    </g>
    <g id="ytick_12">
     <g id="line2d_35">
      <g>
       <use style="stroke:#000000;stroke-width:0.8;" x="354.927273" xlink:href="#m92a0ae60d9" y="48.158182"/>
      </g>
     </g>
     <g id="text_28">
      <!-- 1.04 -->
      <g transform="translate(325.661648 51.957401)scale(0.1 -0.1)">
       <use xlink:href="#DejaVuSans-31"/>
       <use x="63.623047" xlink:href="#DejaVuSans-2e"/>
       <use x="95.410156" xlink:href="#DejaVuSans-30"/>
       <use x="159.033203" xlink:href="#DejaVuSans-34"/>
      </g>
     </g>
    </g>
   </g>
   <g id="line2d_36">
    <path clip-path="url(#p1bf2f5bb37)" d="M 365.303306 107.46 
L 572.823967 107.46 
L 572.823967 107.46 
" style="fill:none;stroke:#1f77b4;stroke-linecap:square;stroke-width:1.5;"/>
   </g>
   <g id="patch_9">
    <path d="M 354.927273 189 
L 354.927273 25.92 
" style="fill:none;stroke:#000000;stroke-linecap:square;stroke-linejoin:miter;stroke-width:0.8;"/>
   </g>
   <g id="patch_10">
    <path d="M 583.2 189 
L 583.2 25.92 
" style="fill:none;stroke:#000000;stroke-linecap:square;stroke-linejoin:miter;stroke-width:0.8;"/>
   </g>
   <g id="patch_11">
    <path d="M 354.927273 189 
L 583.2 189 
" style="fill:none;stroke:#000000;stroke-linecap:square;stroke-linejoin:miter;stroke-width:0.8;"/>
   </g>
   <g id="patch_12">
    <path d="M 354.927273 25.92 
L 583.2 25.92 
" style="fill:none;stroke:#000000;stroke-linecap:square;stroke-linejoin:miter;stroke-width:0.8;"/>
   </g>
   <g id="text_29">
    <!-- D1 modulation dSPN -->
    <g transform="translate(407.123949 19.92)scale(0.12 -0.12)">
     <use xlink:href="#DejaVuSans-44"/>
     <use x="77.001953" xlink:href="#DejaVuSans-31"/>
     <use x="140.625" xlink:href="#DejaVuSans-20"/>
     <use x="172.412109" xlink:href="#DejaVuSans-6d"/>
     <use x="269.824219" xlink:href="#DejaVuSans-6f"/>
     <use x="331.005859" xlink:href="#DejaVuSans-64"/>
     <use x="394.482422" xlink:href="#DejaVuSans-75"/>
     <use x="457.861328" xlink:href="#DejaVuSans-6c"/>
     <use x="485.644531" xlink:href="#DejaVuSans-61"/>
     <use x="546.923828" xlink:href="#DejaVuSans-74"/>
     <use x="586.132812" xlink:href="#DejaVuSans-69"/>
     <use x="613.916016" xlink:href="#DejaVuSans-6f"/>
     <use x="675.097656" xlink:href="#DejaVuSans-6e"/>
     <use x="738.476562" xlink:href="#DejaVuSans-20"/>
     <use x="770.263672" xlink:href="#DejaVuSans-64"/>
     <use x="833.740234" xlink:href="#DejaVuSans-53"/>
     <use x="897.216797" xlink:href="#DejaVuSans-50"/>
     <use x="957.519531" xlink:href="#DejaVuSans-4e"/>
    </g>
   </g>
  </g>
 </g>
 <defs>
  <clipPath id="pcbc5ce7afb">
   <rect height="163.08" width="228.272727" x="81" y="25.92"/>
  </clipPath>
  <clipPath id="p1bf2f5bb37">
   <rect height="163.08" width="228.272727" x="354.927273" y="25.92"/>
  </clipPath>
 </defs>
</svg>
